<svg xmlns="http://www.w3.org/2000/svg" width="60" height="60" fill="none" viewBox="0 0 60 60"><g clip-path="url(#clip0_16262_27422)"><path fill="#627EEA" d="M30 60C46.5685 60 60 46.5685 60 30C60 13.4315 46.5685 0 30 0C13.4315 0 0 13.4315 0 30C0 46.5685 13.4315 60 30 60Z"/><path fill="#fff" fill-opacity=".602" d="M30.9337 7.5V24.1312L44.9906 30.4125L30.9337 7.5Z"/><path fill="#fff" d="M30.9337 7.5L16.875 30.4125L30.9337 24.1312V7.5Z"/><path fill="#fff" fill-opacity=".602" d="M30.9336 41.1903V52.4909L44.9998 33.0303L30.9336 41.1903Z"/><path fill="#fff" d="M30.9337 52.4909V41.1884L16.875 33.0303L30.9337 52.4909Z"/><path fill="#fff" fill-opacity=".2" d="M30.9337 38.5741L44.9906 30.4123L30.9337 24.1348V38.5741Z"/><path fill="#fff" fill-opacity=".602" d="M16.875 30.4123L30.9337 38.5741V24.1348L16.875 30.4123Z"/></g><defs><clipPath id="clip0_16262_27422"><rect width="60" height="60" fill="#fff"/></clipPath></defs></svg>